<svg xmlns="http://www.w3.org/2000/svg" viewBox="0 0 100 100">
    <path d="M96.792 44.66L55.341 3.208a7.517 7.517 0 0 0-5.342-2.207 7.504 7.504 0 0 0-5.338 2.207L3.209 44.66A7.496 7.496 0 0 0 1 50.003c0 2.016.783 3.915 2.209 5.336L44.66 96.791a7.492 7.492 0 0 0 5.338 2.208 7.496 7.496 0 0 0 5.342-2.208L96.792 55.34c2.945-2.942 2.945-7.735 0-10.68zM37.743 71.233c-.565.554-1.097 1.074-1.602 1.577l-7.232-7.232c.55-.547 1.107-1.094 1.694-1.664 5.147-5.021 11.313-11.036 13.477-23.072-.525.124-1.023.265-1.486.423l-1.936.667c-4.069 1.405-5.402-.346-2.965-3.891l7.864-11.442.002-.003 4.43-6.447 4.429 6.451 7.863 11.442c2.436 3.542 1.104 5.296-2.966 3.891l-1.932-.667a16.197 16.197 0 0 0-1.486-.423c2.164 12.036 8.329 18.05 13.479 23.072.587.57 1.144 1.117 1.69 1.664l-7.229 7.232c-.507-.503-1.04-1.023-1.604-1.577-3.787-3.693-8.635-8.419-12.246-15.729-3.608 7.309-8.455 12.035-12.244 15.728z"/>
</svg>
